Format                           : MPEG-PS
File size                        : 76.9 MiB
Duration                         : 4mn 2s
Overall bit rate                 : 2 661 Kbps
Writing library                  : encoded by TMPGEnc (ver. 2.54.36.134)

Video
ID                               : 224 (0xE0)
Format                           : MPEG Video
Format version                   : Version 2
Format profile                   : Main@Main
Format settings, BVOP            : Yes
Format settings, Matrix          : Default
Duration                         : 4mn 2s
Bit rate mode                    : Variable
Bit rate                         : 2 480 Kbps
Width                            : 480 pixels
Height                           : 480 pixels
Display aspect ratio             : 4:3
Frame rate                       : 23.976 fps
Standard                         : NTSC
Color space                      : YUV
Chroma subsampling               : 4:2:0
Bit depth                        : 8 bits
Scan type                        : Progressive
Scan order                       : 2:3 Pulldown
Bits/(Pixel*Frame)               : 0.449
Stream size                      : 68.9 MiB (90%)
Writing library                  : TMPGEnc 2.54.36.134

Audio
ID                               : 192 (0xC0)
Format                           : MPEG Audio
Format version                   : Version 1
Format profile                   : Layer 2
Duration                         : 4mn 2s
Bit rate mode                    : Constant
Bit rate                         : 224 Kbps
Channel(s)                       : 2 channels
Sampling rate                    : 44.1 KHz
Stream size                      : 6.47 MiB (8%)

================================((((( sCREEN Shot))))))==========================

                    http://bayimg.com/KaiEMAADe
=================================================================================